<svg width="344" height="343" viewBox="0 0 344 343" fill="none" xmlns="http://www.w3.org/2000/svg">
<path d="M3 123.99C3 72.6332 44.6333 31 95.9906 31H248.827C300.184 31 341.817 72.6333 341.817 123.991V219.743C341.817 271.1 300.184 312.734 248.827 312.734H95.9906C44.6333 312.734 3 271.1 3 219.743V123.99Z" fill="#FF464F" fill-opacity="0.25"/>
<path d="M88.121 299.463C90.7066 299.714 93.3318 299.844 95.9908 299.844L95.9906 312.734L94.7884 312.726C92.121 312.692 89.481 312.544 86.8723 312.29L88.121 299.463ZM105.543 299.844V312.734L95.9906 312.734L95.9908 299.844H105.543ZM143.752 299.844V312.734H124.648V299.844H143.752ZM181.961 299.844V312.734H162.856V299.844H181.961ZM220.17 299.844V312.734H201.065V299.844H220.17ZM248.826 299.844L248.827 312.734L239.275 312.734V299.844H248.826ZM257.944 312.29C255.336 312.544 252.696 312.692 250.029 312.726L248.827 312.734L248.826 299.844C251.485 299.844 254.111 299.714 256.696 299.463L257.944 312.29ZM58.2335 290.407C62.8178 292.863 67.6663 294.884 72.7249 296.416L70.8559 302.583L70.8566 302.584L68.9877 308.75C63.1069 306.968 57.4727 304.62 52.1483 301.769L58.2335 290.407ZM292.668 301.769C287.344 304.62 281.71 306.969 275.829 308.75L272.092 296.416C277.151 294.884 281.999 292.863 286.584 290.407L292.668 301.769ZM34.0643 270.553C37.3978 274.611 41.1226 278.335 45.1798 281.669L36.9972 291.627C32.2915 287.761 27.9718 283.442 24.1055 278.736L34.0643 270.553ZM320.711 278.736C316.845 283.442 312.525 287.761 307.819 291.627L299.637 281.669C303.695 278.335 307.419 274.611 310.753 270.554L320.711 278.736ZM19.3175 243.008C20.8501 248.067 22.871 252.916 25.3265 257.5L13.9646 263.585C11.1128 258.26 8.764 252.626 6.98228 246.746L19.3175 243.008ZM337.834 246.746C336.053 252.626 333.704 258.26 330.852 263.585L319.491 257.5C321.946 252.916 323.967 248.067 325.5 243.008L337.834 246.746ZM341.81 220.945C341.776 223.612 341.627 226.252 341.374 228.861L328.547 227.613C328.799 225.027 328.928 222.402 328.928 219.743V211.764H341.817V219.743L341.81 220.945ZM3 219.743V211.763H15.8896V219.743C15.8896 222.402 16.0187 225.027 16.2704 227.613L9.85495 228.237L9.85564 228.237L3.44301 228.86C3.18918 226.252 3.0414 223.612 3.00761 220.945L3 219.743ZM15.8896 179.846V195.805H3V179.846H15.8896ZM341.817 179.846V195.805H328.928V179.846H341.817ZM15.8896 147.929V163.888H3V147.929H15.8896ZM341.817 147.929V163.888H328.928V147.929H341.817ZM3 123.99C3 120.914 3.15105 117.872 3.44301 114.872L16.2704 116.121C16.0187 118.706 15.8896 121.332 15.8896 123.991V131.97H3V123.99ZM341.817 131.97H328.928V123.991C328.928 121.332 328.799 118.707 328.547 116.121L341.374 114.872C341.666 117.872 341.817 120.914 341.817 123.991V131.97ZM25.3265 86.2334C22.8711 90.8178 20.8501 95.6662 19.3175 100.725L6.98228 96.9876C8.76401 91.1068 11.1127 85.4727 13.9646 80.1482L25.3265 86.2334ZM330.852 80.1482C333.704 85.4727 336.053 91.1068 337.834 96.9876L331.668 98.8565L331.667 98.8559L325.5 100.725C323.967 95.6662 321.946 90.8178 319.491 86.2334L330.852 80.1482ZM45.1798 62.0643C41.1225 65.3978 37.3978 69.1225 34.0643 73.1798L24.1055 64.9971C27.9719 60.2913 32.2913 55.9719 36.9972 52.1055L45.1798 62.0643ZM307.819 52.1055C312.525 55.9719 316.845 60.2913 320.711 64.9971L310.753 73.1798C307.419 69.1225 303.695 65.3978 299.637 62.0643L307.819 52.1055ZM72.7249 47.3174C67.6663 48.8501 62.8178 50.871 58.2335 53.3265L52.1483 41.9646C57.4727 39.1127 63.1069 36.764 68.9877 34.9823L72.7249 47.3174ZM275.829 34.9823C281.71 36.764 287.344 39.1128 292.668 41.9646L286.584 53.3265C281.999 50.871 277.151 48.8501 272.092 47.3174L275.829 34.9823ZM105.543 31V43.8896H95.9908C93.3318 43.8896 90.7066 44.0187 88.121 44.2703L86.8723 31.443C89.481 31.1891 92.1211 31.0414 94.7884 31.0076L95.9906 31H105.543ZM248.827 31C251.903 31 254.944 31.1511 257.944 31.443L256.696 44.2703C254.111 44.0187 251.485 43.8896 248.826 43.8896H239.275V31H248.827ZM143.752 31V43.8896H124.648V31H143.752ZM181.961 31V43.8896H162.856V31H181.961ZM220.17 31V43.8896H201.065V31H220.17Z" fill="#FF464F"/>
<path d="M167.293 224.541C170.092 231.014 178.186 232.77 183.782 228.474C185.916 226.829 188.05 225.108 190.184 223.312C192.517 226.131 194.975 228.96 197.659 231.655C200.364 234.36 203.214 236.817 206.053 239.171C208.209 240.955 210.908 241.949 213.706 241.991C216.503 242.032 219.231 241.117 221.438 239.398L228.872 231.964C230.595 229.758 231.513 227.028 231.474 224.229C231.434 221.429 230.44 218.727 228.655 216.57C226.301 213.741 223.843 210.891 221.128 208.186C218.468 205.57 215.691 203.076 212.806 200.711C214.637 198.542 216.392 196.367 218.072 194.185C222.367 188.589 220.612 180.505 214.138 177.707C199.848 171.532 184.175 168.208 168.46 170.892C166.467 171.225 164.628 172.173 163.199 173.602C161.77 175.031 160.823 176.87 160.489 178.863C157.805 194.578 161.109 210.251 167.293 224.541Z" fill="#FF464F"/>
<path fill-rule="evenodd" clip-rule="evenodd" d="M110.196 168.548C110.196 152.183 114.77 140.495 122.379 132.886C129.989 125.276 141.687 120.702 158.042 120.702C172.27 120.702 182.966 124.171 190.473 130.036C197.907 135.828 202.987 144.553 204.979 156.623C205.34 158.623 206.473 160.402 208.133 161.574C209.794 162.747 211.849 163.219 213.855 162.89C215.861 162.561 217.657 161.456 218.855 159.814C220.054 158.172 220.558 156.124 220.26 154.114C217.751 138.874 211.009 126.401 200.003 117.821C189.079 109.303 174.727 105.215 158.042 105.215C138.837 105.215 122.73 110.646 111.435 121.941C100.139 133.226 94.7085 149.333 94.7085 168.548C94.7085 185.316 98.8282 199.709 107.429 210.653C116.081 221.67 128.657 228.381 144 230.828C146.007 231.106 148.043 230.586 149.671 229.38C151.3 228.174 152.39 226.377 152.709 224.376C153.028 222.375 152.55 220.329 151.377 218.676C150.204 217.024 148.431 215.897 146.437 215.537C134.253 213.596 125.446 208.516 119.602 201.082C113.706 193.565 110.196 182.848 110.196 168.558V168.548Z" fill="#FF464F" fill-opacity="0.4"/>
<path d="M143.742 154.248C141.037 156.943 139.054 161.424 139.054 168.548C139.054 176.24 141.357 180.855 144.454 183.519C146.012 184.858 146.975 186.762 147.13 188.81C147.285 190.859 146.619 192.885 145.28 194.443C143.941 196.001 142.038 196.964 139.989 197.119C137.941 197.273 135.915 196.608 134.357 195.269C126.892 188.857 123.567 179.348 123.567 168.548C123.567 158.574 126.396 149.684 132.787 143.293C139.178 136.902 148.068 134.073 158.042 134.073C167.334 134.073 175.677 136.52 181.975 142.044C183.518 143.399 184.46 145.312 184.592 147.362C184.725 149.411 184.038 151.43 182.683 152.973C181.327 154.516 179.414 155.457 177.365 155.59C175.315 155.723 173.297 155.036 171.754 153.68C169.028 151.295 164.691 149.56 158.042 149.56C150.918 149.56 146.437 151.543 143.742 154.248Z" fill="#FF464F"/>
</svg>
