<svg width="2136" height="486" viewBox="0 0 2136 486" fill="none" xmlns="http://www.w3.org/2000/svg">
<path d="M621.764 248.58C621.764 189.66 668.114 142.524 725.856 142.524C749.424 142.524 771.028 150.38 788.311 163.735V62H840.161V348.744H791.846V330.282C774.17 345.602 750.995 354.636 725.856 354.636C668.114 354.636 621.764 307.5 621.764 248.58ZM676.363 248.58C676.363 281.575 701.11 306.714 732.534 306.714C763.565 306.714 788.311 281.575 788.311 248.58C788.311 215.585 763.565 190.446 732.534 190.446C701.11 190.446 676.363 215.585 676.363 248.58Z" fill="black"/>
<path d="M856.182 248.58C856.182 189.66 905.282 142.524 966.952 142.524C1029.01 142.524 1078.11 189.267 1078.11 248.58C1078.11 307.5 1029.01 354.636 966.952 354.636C905.282 354.636 856.182 307.5 856.182 248.58ZM910.781 248.58C910.781 281.182 935.528 306.714 966.952 306.714C998.768 306.714 1023.12 281.182 1023.12 248.58C1023.12 215.978 998.768 190.446 966.952 190.446C935.528 190.446 910.781 215.978 910.781 248.58Z" fill="black"/>
<path d="M1276.48 229.726V348.744H1224.63V230.904C1224.63 207.336 1208.52 189.66 1186.13 189.66C1163.74 189.66 1146.07 207.336 1146.07 229.333V348.744H1094.22V148.416H1142.53V162.557C1155.1 149.202 1174.35 141.738 1196.74 141.738C1223.06 141.738 1244.66 151.951 1258.8 169.627C1272.94 152.344 1297.69 141.738 1325.18 141.738C1373.11 141.738 1406.1 174.341 1406.1 221.87V348.744H1354.25V232.082C1354.25 206.943 1338.54 189.66 1315.76 189.66C1293.76 189.66 1276.48 206.943 1276.48 229.726Z" fill="black"/>
<path d="M1416.58 327.533L1441.72 291.395C1458.21 304.358 1474.32 310.642 1488.85 310.642C1503.39 310.642 1511.63 304.358 1511.63 292.966C1511.63 283.539 1505.74 278.04 1483.75 268.613L1475.1 265.078C1439.36 250.151 1422.86 232.868 1422.86 205.765C1422.86 168.842 1452.71 142.524 1497.1 142.524C1520.28 142.524 1545.42 149.987 1561.13 161.378L1538.74 200.266C1526.17 191.231 1513.99 186.518 1500.24 186.518C1485.32 186.518 1476.68 192.41 1476.68 202.622C1476.68 211.264 1483.35 217.156 1508.1 227.762L1514.38 230.511C1551.7 246.616 1566.23 263.114 1566.23 290.61C1566.23 328.711 1537.56 354.636 1493.17 354.636C1464.5 354.636 1433.07 343.638 1416.58 327.533Z" fill="black"/>
<path d="M1581.85 348.744V62H1633.7V159.022C1645.88 148.023 1663.95 141.738 1684.37 141.738C1731.11 141.738 1764.11 174.734 1764.11 222.262V348.744H1712.26V230.904C1712.26 207.336 1696.15 189.66 1673.77 189.66C1651.38 189.66 1633.7 207.336 1633.7 229.333V348.744H1581.85Z" fill="black"/>
<path d="M1779.66 248.58C1779.66 189.66 1828.76 142.524 1890.43 142.524C1952.49 142.524 2001.59 189.267 2001.59 248.58C2001.59 307.5 1952.49 354.636 1890.43 354.636C1828.76 354.636 1779.66 307.5 1779.66 248.58ZM1834.26 248.58C1834.26 281.182 1859.01 306.714 1890.43 306.714C1922.25 306.714 1946.6 281.182 1946.6 248.58C1946.6 215.978 1922.25 190.446 1890.43 190.446C1859.01 190.446 1834.26 215.978 1834.26 248.58Z" fill="black"/>
<path d="M2002.9 193.588V148.416H2039.04V91.46H2090.89V148.416H2135.67V193.588H2090.89V348.744H2039.04V193.588H2002.9Z" fill="black"/>
<g filter="url(#filter0_d_18_223)">
<rect x="44" y="10" width="478" height="397.467" rx="131.19" fill="#FF464F" fill-opacity="0.25" shape-rendering="crispEdges"/>
<rect x="53.0924" y="19.0924" width="459.815" height="379.283" rx="122.098" stroke="#FF464F" stroke-width="18.1848" stroke-dasharray="24.68 24.68" shape-rendering="crispEdges"/>
</g>
<path d="M275.783 283.045C279.73 292.178 291.15 294.655 299.045 288.595C302.056 286.274 305.066 283.846 308.076 281.312C311.368 285.288 314.835 289.28 318.622 293.081C322.439 296.898 326.459 300.365 330.465 303.686C333.506 306.202 337.314 307.605 341.261 307.664C345.207 307.722 349.055 306.432 352.169 304.006L362.657 293.518C365.088 290.405 366.383 286.555 366.327 282.605C366.272 278.656 364.869 274.843 362.351 271.8C359.03 267.809 355.563 263.788 351.732 259.972C347.979 256.282 344.062 252.763 339.991 249.426C342.574 246.367 345.051 243.298 347.42 240.22C353.48 232.325 351.004 220.92 341.87 216.972C321.711 208.261 299.599 203.571 277.429 207.358C274.617 207.829 272.022 209.165 270.006 211.181C267.99 213.197 266.654 215.792 266.183 218.603C262.396 240.774 267.057 262.885 275.783 283.045Z" fill="#FF464F"/>
<path fill-rule="evenodd" clip-rule="evenodd" d="M195.231 204.052C195.231 180.964 201.684 164.475 212.419 153.74C223.154 143.004 239.658 136.551 262.731 136.551C282.804 136.551 297.895 141.446 308.484 149.719C318.972 157.891 326.139 170.2 328.95 187.228C329.459 190.05 331.057 192.559 333.4 194.213C335.742 195.867 338.642 196.534 341.472 196.07C344.301 195.605 346.835 194.046 348.526 191.73C350.217 189.413 350.929 186.525 350.508 183.688C346.969 162.188 337.457 144.592 321.929 132.487C306.518 120.47 286.271 114.702 262.731 114.702C235.638 114.702 212.914 122.364 196.979 138.299C181.043 154.22 173.381 176.944 173.381 204.052C173.381 227.708 179.193 248.013 191.327 263.454C203.534 278.996 221.275 288.464 242.921 291.916C245.753 292.308 248.625 291.575 250.922 289.873C253.219 288.171 254.758 285.637 255.208 282.814C255.658 279.991 254.983 277.104 253.329 274.772C251.674 272.441 249.172 270.851 246.359 270.343C229.17 267.605 216.745 260.438 208.501 249.951C200.183 239.346 195.231 224.226 195.231 204.066V204.052Z" fill="#FF464F" fill-opacity="0.4"/>
<path d="M242.557 183.877C238.741 187.679 235.944 194.001 235.944 204.052C235.944 214.904 239.192 221.415 243.562 225.173C245.76 227.062 247.118 229.747 247.336 232.637C247.555 235.527 246.616 238.386 244.727 240.584C242.838 242.782 240.153 244.14 237.263 244.359C234.373 244.577 231.514 243.639 229.316 241.75C218.785 232.704 214.094 219.288 214.094 204.052C214.094 189.981 218.085 177.439 227.102 168.422C236.119 159.406 248.66 155.415 262.731 155.415C275.841 155.415 287.611 158.867 296.496 166.66C298.673 168.572 300.001 171.271 300.188 174.162C300.376 177.054 299.406 179.901 297.494 182.078C295.582 184.255 292.883 185.583 289.991 185.77C287.1 185.958 284.252 184.988 282.076 183.076C278.23 179.711 272.112 177.264 262.731 177.264C252.681 177.264 246.359 180.061 242.557 183.877Z" fill="#FF464F"/>
<defs>
<filter id="filter0_d_18_223" x="0" y="0" width="566" height="485.467" filterUnits="userSpaceOnUse" color-interpolation-filters="sRGB">
<feFlood flood-opacity="0" result="BackgroundImageFix"/>
<feColorMatrix in="SourceAlpha" type="matrix" values="0 0 0 0 0 0 0 0 0 0 0 0 0 0 0 0 0 0 127 0" result="hardAlpha"/>
<feMorphology radius="10" operator="dilate" in="SourceAlpha" result="effect1_dropShadow_18_223"/>
<feOffset dy="34"/>
<feGaussianBlur stdDeviation="17"/>
<feComposite in2="hardAlpha" operator="out"/>
<feColorMatrix type="matrix" values="0 0 0 0 0 0 0 0 0 0 0 0 0 0 0 0 0 0 0.06 0"/>
<feBlend mode="normal" in2="BackgroundImageFix" result="effect1_dropShadow_18_223"/>
<feBlend mode="normal" in="SourceGraphic" in2="effect1_dropShadow_18_223" result="shape"/>
</filter>
</defs>
</svg>
